<svg width="64" height="64" viewBox="0 0 64 64" fill="none" xmlns="http://www.w3.org/2000/svg">
<path d="M52.2961 60.8205H51.1523C51.1523 60.8082 51.1467 60.7959 51.1443 60.7844L51.113 60.643C51.0929 60.5501 51.0713 60.4579 51.0488 60.3665C51.0392 60.3235 51.0288 60.2805 51.0184 60.2375C50.9887 60.1169 50.9574 59.9963 50.9253 59.8757L50.9157 59.8411C50.8804 59.7106 50.8435 59.5805 50.805 59.451L50.7665 59.3258C50.74 59.2367 50.712 59.1483 50.6863 59.06C50.6711 59.0116 50.655 58.964 50.6398 58.9164C50.6117 58.8311 50.5828 58.7458 50.5531 58.6614C50.5379 58.6168 50.5219 58.5715 50.5066 58.5277C50.4692 58.4217 50.4307 58.3165 50.3911 58.212C50.3823 58.1897 50.3751 58.1682 50.3663 58.146C50.3197 58.0231 50.2708 57.9009 50.2211 57.7788C50.2034 57.7343 50.185 57.6905 50.1665 57.6467C50.1329 57.5699 50.0992 57.4854 50.0647 57.4055L49.9997 57.2573C49.966 57.1805 49.9315 57.1037 49.8962 57.0268C49.8746 56.9792 49.8521 56.9308 49.8297 56.8832C49.7888 56.7949 49.7495 56.7073 49.7037 56.6205C49.6869 56.5875 49.6717 56.5537 49.6548 56.5199C49.5979 56.4055 49.5393 56.2895 49.48 56.1789L49.3998 56.0352L49.2867 55.8271L49.1984 55.6735C49.1615 55.6089 49.1246 55.5444 49.0869 55.4799C49.0573 55.4277 49.0268 55.3754 48.9963 55.3263C48.9546 55.2564 48.9161 55.188 48.8704 55.1189L48.7549 54.9315C48.7003 54.8454 48.6458 54.7587 48.5897 54.6734C48.5544 54.6196 48.5191 54.5666 48.483 54.5136C48.4469 54.4606 48.4076 54.4 48.3691 54.3439C48.3306 54.2878 48.2889 54.2317 48.2536 54.1764C48.2183 54.1211 48.1798 54.0712 48.1421 54.0228C48.1044 53.9744 48.0619 53.9099 48.021 53.8538L47.9079 53.7002C47.8277 53.5981 47.7539 53.4959 47.6753 53.393L47.5654 53.2524C47.5189 53.1933 47.4707 53.1349 47.4234 53.0765L47.3176 52.9475C47.2686 52.8883 47.2189 52.83 47.1692 52.7708L47.0649 52.6495L46.9093 52.4713L46.8171 52.3683C46.6254 52.1556 46.4289 51.9459 46.2275 51.7416L46.1393 51.6517L45.9548 51.4697L45.8642 51.3821C45.8 51.3199 45.7359 51.2584 45.6709 51.1978L45.6043 51.1363C45.3773 50.9251 45.1439 50.7192 44.9065 50.5218L44.8415 50.4673C44.7683 50.4059 44.6945 50.3452 44.6202 50.2853L44.5464 50.2254C44.4662 50.1639 44.3932 50.1032 44.3154 50.0426L44.2761 50.0126C44.0138 49.8098 43.7451 49.6124 43.474 49.4227L43.4363 49.3958C43.3505 49.3367 43.2646 49.2783 43.178 49.2207L43.1211 49.1831C43.0329 49.1239 42.9438 49.0663 42.8548 49.0087L42.8395 48.9995C42.5444 48.8105 42.2436 48.6295 41.9372 48.4564L41.9252 48.4488C41.8281 48.3942 41.7311 48.3412 41.634 48.2882L41.5915 48.2652C41.075 47.9861 40.5445 47.7301 40.0002 47.4971L39.9665 47.4825C39.8229 47.421 39.6786 47.3619 39.5326 47.3035H42.4032C42.8708 47.3035 43.2502 46.7881 43.2502 46.1514C43.2502 45.5146 42.8708 44.9992 42.4032 44.9992H41.5482C41.6011 44.8702 41.6597 44.7243 41.7231 44.5599C42.5315 44.0775 43.9544 43.0498 45.3661 41.1618L45.3773 41.1472C45.4843 41.0059 45.5893 40.8597 45.6925 40.7087L45.7134 40.6787C45.8161 40.5305 45.9187 40.3776 46.0198 40.2178L46.0471 40.1756C46.0952 40.0988 46.1433 40.022 46.1914 39.9452C46.1914 39.9452 46.1914 39.939 46.1971 39.9352C46.2468 39.8584 46.2957 39.7739 46.3446 39.6917L46.3759 39.6387C46.4176 39.568 46.4601 39.4958 46.501 39.4229C46.5091 39.4098 46.5171 39.3968 46.5243 39.3829C46.5716 39.3 46.6189 39.2155 46.6655 39.1302L46.6975 39.0711C46.736 39.0004 46.7738 38.929 46.8114 38.8568C46.8227 38.8368 46.8339 38.8161 46.8443 38.7953C46.8892 38.7085 46.9342 38.621 46.9791 38.5319L47.0104 38.4697C47.0457 38.3975 47.0817 38.3237 47.117 38.25L47.1555 38.1732C47.1988 38.0825 47.2414 37.9904 47.2839 37.8974L47.3103 37.8383C47.3456 37.7615 47.3801 37.6847 47.4146 37.6079L47.4555 37.5157C47.4956 37.4227 47.5357 37.329 47.5742 37.2346C47.5814 37.2177 47.5887 37.2 47.5951 37.1831C47.6312 37.0963 47.6665 37.008 47.7018 36.9189L47.7419 36.8175C47.7747 36.733 47.8076 36.6477 47.8397 36.5625L47.8638 36.498C47.9015 36.3966 47.9384 36.2929 47.9753 36.1907L48.0138 36.0816C48.0426 36.0002 48.0707 35.9173 48.0988 35.8343C48.1092 35.8036 48.1196 35.7729 48.1293 35.7421C48.1646 35.6362 48.1998 35.5279 48.2343 35.4196C48.2456 35.3819 48.2576 35.3427 48.2688 35.3074L48.349 35.0547C48.3595 35.0178 48.3707 34.9779 48.3811 34.9449C48.414 34.8335 48.4469 34.7198 48.4782 34.6054C48.4886 34.5693 48.4982 34.5324 48.5078 34.4955C48.5319 34.4072 48.556 34.3189 48.5792 34.229C48.5897 34.1883 48.6001 34.1476 48.6113 34.1069C48.641 33.9886 48.6707 33.8695 48.6995 33.7489L48.7236 33.6483C48.7461 33.5523 48.7685 33.4555 48.7902 33.358L48.819 33.2274C48.8463 33.1022 48.8736 32.977 48.8993 32.8495C48.9049 32.8249 48.9097 32.7996 48.9145 32.7727C48.937 32.6629 48.9586 32.5515 48.9795 32.4401C48.9883 32.3948 48.9963 32.3495 49.0051 32.3042C49.026 32.1897 49.046 32.0737 49.0661 31.9593C49.0701 31.9347 49.0749 31.9109 49.0789 31.8871C49.1014 31.7519 49.1233 31.6157 49.1447 31.4784C49.1519 31.4324 49.1591 31.3863 49.1656 31.3394C49.1824 31.2281 49.1984 31.1159 49.2145 31.0022L49.2289 30.8978C49.2482 30.7564 49.2666 30.6143 49.2843 30.4699C49.2899 30.4246 49.2947 30.3793 49.3003 30.3332C49.3142 30.2185 49.327 30.1033 49.3388 29.9876C49.3436 29.9461 49.3484 29.9054 49.3524 29.8639C49.3679 29.7154 49.3824 29.5656 49.3957 29.4146C49.3957 29.3723 49.403 29.3301 49.4062 29.2871C49.4166 29.1657 49.427 29.0436 49.4359 28.9207C49.4359 28.8754 49.4431 28.8301 49.4463 28.7847C49.4575 28.6281 49.4679 28.4703 49.4776 28.3116C49.4776 28.2755 49.4776 28.2348 49.4832 28.2025C49.4904 28.0704 49.4976 27.9375 49.5032 27.8039C49.5032 27.7555 49.5032 27.7071 49.5096 27.6587C49.5161 27.4936 49.5225 27.3277 49.5273 27.1595C49.5273 27.1364 49.5273 27.1126 49.5273 27.0888C49.5316 26.9393 49.5348 26.7882 49.5369 26.6356C49.5369 26.5857 49.5369 26.5358 49.5369 26.4858C49.5369 26.322 49.5369 26.1571 49.5369 25.9912V25.9528C49.5369 25.7761 49.5369 25.5971 49.5369 25.4151V25.2615C49.5369 25.1079 49.5305 24.9466 49.5265 24.7868V24.7C49.5209 24.5157 49.5137 24.329 49.5064 24.1416C49.5064 24.0932 49.5016 24.0441 49.5 23.9957C49.4931 23.8379 49.485 23.6792 49.476 23.5194C49.476 23.4803 49.4759 23.4426 49.4695 23.4004C49.4583 23.2084 49.446 23.0148 49.4326 22.8197L49.423 22.6838C49.411 22.5209 49.399 22.3573 49.3853 22.1922C49.3853 22.1446 49.3781 22.0969 49.3741 22.0493C49.3572 21.8496 49.3388 21.6476 49.3195 21.4448C49.3195 21.4064 49.3115 21.368 49.3083 21.3288C49.2915 21.156 49.273 20.9817 49.2546 20.8058C49.249 20.7528 49.2434 20.7005 49.2369 20.6475C49.2145 20.4386 49.1904 20.2289 49.1647 20.0162C49.1647 19.99 49.1575 19.9639 49.1543 19.9394C49.1313 19.7489 49.107 19.5574 49.0813 19.3648C49.0733 19.308 49.0661 19.2511 49.0581 19.1943C49.0281 18.9762 48.9974 18.7562 48.9658 18.5345C45.7575 -3.33624 23.0218 0.213123 23.0218 0.213123L23.7501 4.91233L10 18.8225L10.6008 24.1938L15.8095 27.2662C16.0417 26.701 16.3398 26.1628 16.6982 25.6617C20.0589 21.9495 26.579 19.0353 28.4454 18.4308C28.8192 18.3102 29.0317 18.2495 29.0317 18.2495C20.1038 29.3147 21.1192 41.9914 21.5171 45.0131C21.1032 45.0899 20.7832 45.5684 20.7832 46.1521C20.7832 46.7881 21.1625 47.3043 21.6302 47.3043H24.5008C19.7265 49.2181 15.9368 52.8629 13.9591 57.4432C13.9567 57.4494 13.9541 57.4556 13.951 57.4616C13.8051 57.8016 13.6693 58.1465 13.5436 58.4962C13.5438 58.4998 13.5438 58.5034 13.5436 58.507C13.5099 58.6022 13.477 58.6974 13.4449 58.7935C13.4329 58.828 13.4209 58.8626 13.4096 58.8979C13.3808 58.9839 13.354 59.0707 13.3294 59.1583C13.315 59.2029 13.3014 59.2482 13.2877 59.2927C13.2621 59.3749 13.2372 59.4579 13.2131 59.5408L13.1698 59.6944C13.1474 59.7712 13.1249 59.8534 13.1041 59.9333C13.0888 59.9902 13.0744 60.0462 13.0599 60.1031C13.0407 60.1799 13.0206 60.2567 13.0022 60.3335C12.9837 60.4103 12.9661 60.4871 12.9484 60.5685C12.9308 60.6499 12.9083 60.7452 12.8891 60.8343H11.7445C11.5244 60.8297 11.3056 60.8671 11.1008 60.9446C10.8961 61.022 10.7095 61.1379 10.5522 61.2853C10.3948 61.4327 10.2697 61.6088 10.1844 61.8031C10.099 61.9974 10.055 62.2061 10.055 62.417C10.055 62.6278 10.099 62.8365 10.1844 63.0308C10.2697 63.2251 10.3948 63.4012 10.5522 63.5486C10.7095 63.696 10.8961 63.8119 11.1008 63.8893C11.3056 63.9668 11.5244 64.0043 11.7445 63.9996H52.3105C52.5306 64.0043 52.7494 63.9668 52.9542 63.8893C53.159 63.8119 53.3455 63.696 53.5029 63.5486C53.6603 63.4012 53.7853 63.2251 53.8707 63.0308C53.956 62.8365 54 62.6278 54 62.417C54 62.2061 53.956 61.9974 53.8707 61.8031C53.7853 61.6088 53.6603 61.4327 53.5029 61.2853C53.3455 61.1379 53.159 61.022 52.9542 60.9446C52.7494 60.8671 52.5306 60.8297 52.3105 60.8343L52.2961 60.8205Z" fill="#595653"/>
</svg>
