<svg width="22" height="32" viewBox="0 0 22 32" fill="none" xmlns="http://www.w3.org/2000/svg">
<path d="M20.8163 29.944H20.2534C20.2534 29.938 20.2506 29.932 20.2495 29.9264L20.2341 29.8575C20.2242 29.8122 20.2135 29.7673 20.2025 29.7228C20.1978 29.7018 20.1926 29.6809 20.1875 29.6599C20.1729 29.6012 20.1575 29.5424 20.1417 29.4837L20.137 29.4668C20.1196 29.4032 20.1014 29.3398 20.0825 29.2767L20.0635 29.2157C20.0505 29.1723 20.0367 29.1292 20.0241 29.0862C20.0166 29.0626 20.0087 29.0394 20.0012 29.0162C19.9874 28.9747 19.9731 28.9331 19.9585 28.892C19.951 28.8703 19.9431 28.8482 19.9356 28.8269C19.9172 28.7752 19.8983 28.7239 19.8788 28.673C19.8745 28.6622 19.8709 28.6517 19.8666 28.6409C19.8437 28.581 19.8196 28.5215 19.7951 28.462C19.7864 28.4403 19.7773 28.4189 19.7683 28.3976C19.7517 28.3602 19.7351 28.319 19.7181 28.2801L19.6862 28.2079C19.6696 28.1704 19.6526 28.133 19.6352 28.0956C19.6246 28.0724 19.6135 28.0488 19.6025 28.0256C19.5823 27.9826 19.563 27.9399 19.5405 27.8976C19.5322 27.8815 19.5247 27.8651 19.5164 27.8486C19.4884 27.7928 19.4596 27.7363 19.4304 27.6824L19.3909 27.6124L19.3352 27.511L19.2918 27.4362C19.2736 27.4047 19.2555 27.3733 19.2369 27.3419C19.2223 27.3164 19.2073 27.291 19.1923 27.267C19.1718 27.233 19.1529 27.1996 19.1303 27.166L19.0735 27.0746C19.0467 27.0327 19.0198 26.9904 18.9922 26.9489C18.9748 26.9227 18.9575 26.8969 18.9397 26.8711C18.9219 26.8452 18.9026 26.8157 18.8836 26.7884C18.8647 26.761 18.8442 26.7337 18.8268 26.7068C18.8094 26.6798 18.7905 26.6555 18.7719 26.6319C18.7534 26.6083 18.7324 26.5769 18.7123 26.5496L18.6567 26.4747C18.6172 26.425 18.5809 26.3752 18.5422 26.325L18.4881 26.2565C18.4652 26.2277 18.4415 26.1993 18.4182 26.1709L18.3661 26.108C18.342 26.0792 18.3176 26.0507 18.2931 26.0219L18.2418 25.9628L18.1652 25.8759L18.1198 25.8258C18.0254 25.7221 17.9287 25.62 17.8297 25.5204L17.7862 25.4766L17.6954 25.3879L17.6508 25.3453C17.6192 25.315 17.5877 25.285 17.5557 25.2554L17.5229 25.2255C17.4112 25.1226 17.2963 25.0223 17.1795 24.9261L17.1475 24.8995C17.1115 24.8696 17.0752 24.84 17.0386 24.8108L17.0023 24.7817C16.9628 24.7517 16.9269 24.7222 16.8886 24.6926L16.8692 24.678C16.7401 24.5792 16.6079 24.483 16.4745 24.3906L16.4559 24.3775C16.4137 24.3487 16.3714 24.3202 16.3288 24.2921L16.3008 24.2738C16.2574 24.245 16.2135 24.2169 16.1697 24.1889L16.1622 24.1844C16.017 24.0923 15.8689 24.0041 15.7181 23.9198L15.7122 23.916C15.6645 23.8895 15.6167 23.8636 15.5689 23.8378L15.548 23.8266C15.2938 23.6906 15.0327 23.5659 14.7648 23.4523L14.7482 23.4452C14.6776 23.4153 14.6065 23.3865 14.5347 23.358H15.9475C16.1776 23.358 16.3643 23.1069 16.3643 22.7967C16.3643 22.4864 16.1776 22.2353 15.9475 22.2353H15.5267C15.5527 22.1724 15.5816 22.1013 15.6127 22.0212C16.0106 21.7862 16.7109 21.2855 17.4057 20.3656L17.4112 20.3585C17.4639 20.2896 17.5156 20.2184 17.5664 20.1448L17.5766 20.1302C17.6271 20.058 17.6777 19.9835 17.7274 19.9056L17.7408 19.8851C17.7645 19.8476 17.7882 19.8102 17.8119 19.7728C17.8119 19.7728 17.8119 19.7698 17.8147 19.7679C17.8391 19.7305 17.8632 19.6893 17.8873 19.6493L17.9027 19.6235C17.9232 19.589 17.9441 19.5538 17.9643 19.5183C17.9682 19.5119 17.9722 19.5056 17.9757 19.4988C17.999 19.4584 18.0223 19.4172 18.0452 19.3757L18.061 19.3469C18.0799 19.3125 18.0985 19.2777 18.117 19.2425C18.1226 19.2327 18.1281 19.2226 18.1332 19.2125C18.1553 19.1702 18.1774 19.1276 18.1995 19.0842L18.2149 19.0539C18.2323 19.0187 18.2501 18.9828 18.2674 18.9468L18.2864 18.9094C18.3077 18.8652 18.3286 18.8203 18.3495 18.775L18.3626 18.7462C18.3799 18.7088 18.3969 18.6714 18.4139 18.634L18.434 18.589C18.4537 18.5438 18.4735 18.4981 18.4924 18.4521C18.496 18.4438 18.4995 18.4352 18.5027 18.427C18.5205 18.3847 18.5378 18.3417 18.5552 18.2983L18.5749 18.2489C18.5911 18.2077 18.6073 18.1662 18.6231 18.1246L18.6349 18.0932C18.6535 18.0438 18.6716 17.9932 18.6898 17.9435L18.7088 17.8903C18.723 17.8507 18.7368 17.8102 18.7506 17.7698C18.7557 17.7549 18.7609 17.7399 18.7656 17.7249C18.783 17.6733 18.8003 17.6205 18.8173 17.5677C18.8228 17.5494 18.8288 17.5303 18.8343 17.5131L18.8738 17.39C18.8789 17.372 18.8844 17.3525 18.8896 17.3365C18.9057 17.2822 18.9219 17.2268 18.9373 17.171C18.9424 17.1534 18.9472 17.1355 18.9519 17.1175C18.9638 17.0745 18.9756 17.0314 18.9871 16.9877C18.9922 16.9678 18.9973 16.948 19.0028 16.9282C19.0175 16.8705 19.0321 16.8125 19.0463 16.7538L19.0581 16.7047C19.0692 16.6579 19.0802 16.6108 19.0909 16.5633L19.1051 16.4996C19.1185 16.4386 19.1319 16.3776 19.1446 16.3155C19.1473 16.3035 19.1497 16.2912 19.1521 16.2781C19.1631 16.2246 19.1738 16.1703 19.184 16.116C19.1884 16.094 19.1923 16.0719 19.1967 16.0498C19.2069 15.994 19.2168 15.9375 19.2267 15.8818C19.2286 15.8698 19.231 15.8582 19.233 15.8466C19.244 15.7807 19.2548 15.7144 19.2654 15.6475C19.2689 15.625 19.2725 15.6026 19.2756 15.5798C19.2839 15.5255 19.2918 15.4708 19.2997 15.4155L19.3068 15.3646C19.3163 15.2957 19.3254 15.2265 19.334 15.1561C19.3368 15.134 19.3392 15.1119 19.3419 15.0895C19.3488 15.0336 19.3551 14.9775 19.3609 14.9211C19.3633 14.9009 19.3656 14.881 19.3676 14.8608C19.3752 14.7885 19.3823 14.7155 19.3889 14.6419C19.3889 14.6213 19.3925 14.6007 19.394 14.5798C19.3992 14.5206 19.4043 14.4611 19.4087 14.4013C19.4087 14.3792 19.4122 14.3571 19.4138 14.335C19.4193 14.2587 19.4244 14.1818 19.4292 14.1045C19.4292 14.0869 19.4292 14.0671 19.4319 14.0513C19.4355 13.987 19.439 13.9222 19.4418 13.8571C19.4418 13.8335 19.4418 13.81 19.445 13.7864C19.4481 13.7059 19.4513 13.6251 19.4537 13.5431C19.4537 13.5319 19.4537 13.5203 19.4537 13.5087C19.4558 13.4358 19.4573 13.3622 19.4584 13.2879C19.4584 13.2636 19.4584 13.2392 19.4584 13.2149C19.4584 13.1351 19.4584 13.0547 19.4584 12.9739V12.9552C19.4584 12.8691 19.4584 12.7819 19.4584 12.6932V12.6184C19.4584 12.5435 19.4552 12.4649 19.4533 12.3871V12.3448C19.4505 12.255 19.4469 12.164 19.4434 12.0727C19.4434 12.0491 19.441 12.0252 19.4402 12.0016C19.4368 11.9248 19.4329 11.8474 19.4284 11.7696C19.4284 11.7505 19.4284 11.7322 19.4252 11.7116C19.4197 11.618 19.4136 11.5237 19.4071 11.4286L19.4023 11.3624C19.3964 11.2831 19.3905 11.2033 19.3838 11.1229C19.3838 11.0997 19.3802 11.0765 19.3783 11.0533C19.37 10.956 19.3609 10.8575 19.3514 10.7587C19.3514 10.74 19.3475 10.7213 19.3459 10.7022C19.3376 10.618 19.3285 10.5331 19.3194 10.4474C19.3167 10.4216 19.3139 10.3961 19.3108 10.3703C19.2997 10.2685 19.2879 10.1663 19.2752 10.0627C19.2752 10.0499 19.2717 10.0372 19.2701 10.0252C19.2588 9.93242 19.2468 9.83911 19.2342 9.7453C19.2302 9.7176 19.2267 9.68991 19.2227 9.66221C19.208 9.55593 19.1929 9.44877 19.1773 9.34074C17.5983 -1.31548 6.40876 0.4139 6.40876 0.4139L6.76719 2.70352L0 9.48108L0.295667 12.0982L2.85917 13.5951C2.97345 13.3198 3.12017 13.0575 3.29655 12.8133C4.95055 11.0046 8.15947 9.58474 9.07805 9.29021C9.26201 9.23146 9.36662 9.20189 9.36662 9.20189C4.97266 14.5932 5.47241 20.7698 5.66821 22.242C5.46452 22.2795 5.30701 22.5126 5.30701 22.797C5.30701 23.1069 5.49373 23.3584 5.72387 23.3584H7.13668C4.78699 24.2909 2.92185 26.0668 1.94848 28.2984C1.94734 28.3015 1.94602 28.3045 1.94454 28.3074C1.87269 28.4731 1.80585 28.6411 1.74401 28.8115C1.74411 28.8133 1.74411 28.815 1.74401 28.8168C1.72743 28.8632 1.71124 28.9096 1.69545 28.9563C1.68953 28.9732 1.68361 28.99 1.67808 29.0072C1.66387 29.0492 1.65071 29.0914 1.63861 29.1341C1.6315 29.1558 1.62479 29.1779 1.61808 29.1996C1.60545 29.2396 1.59321 29.2801 1.58137 29.3205L1.56005 29.3953C1.549 29.4328 1.53795 29.4728 1.52768 29.5117C1.52018 29.5394 1.51308 29.5667 1.50597 29.5944C1.4965 29.6319 1.48663 29.6693 1.47755 29.7067C1.46847 29.7441 1.45978 29.7816 1.4511 29.8212C1.44242 29.8609 1.43136 29.9073 1.42189 29.9507H0.85858C0.750258 29.9484 0.642551 29.9667 0.541778 30.0045C0.441006 30.0422 0.3492 30.0986 0.271747 30.1705C0.194294 30.2423 0.13275 30.3281 0.0907365 30.4228C0.0487226 30.5174 0.0270812 30.6191 0.0270812 30.7218C0.0270812 30.8246 0.0487226 30.9262 0.0907365 31.0209C0.13275 31.1156 0.194294 31.2014 0.271747 31.2732C0.3492 31.345 0.441006 31.4015 0.541778 31.4392C0.642551 31.477 0.750258 31.4952 0.85858 31.493H20.8234C20.9318 31.4952 21.0395 31.477 21.1402 31.4392C21.241 31.4015 21.3328 31.345 21.4103 31.2732C21.4877 31.2014 21.5493 31.1156 21.5913 31.0209C21.6333 30.9262 21.6549 30.8246 21.6549 30.7218C21.6549 30.6191 21.6333 30.5174 21.5913 30.4228C21.5493 30.3281 21.4877 30.2423 21.4103 30.1705C21.3328 30.0986 21.241 30.0422 21.1402 30.0045C21.0395 29.9667 20.9318 29.9484 20.8234 29.9507L20.8163 29.944Z" fill="#595653"/>
</svg>
